<?xml version="1.0" encoding="UTF-8" standalone="no"?>
<!DOCTYPE svg PUBLIC "-//W3C//DTD SVG 1.1//EN"
 "http://www.w3.org/Graphics/SVG/1.1/DTD/svg11.dtd">
<!-- Generated by graphviz version 2.38.0 (20140413.2041)
 -->
<!-- Title: G Pages: 1 -->
<svg width="365pt" height="743pt"
 viewBox="0.00 0.00 365.00 743.00" xmlns="http://www.w3.org/2000/svg" xmlns:xlink="http://www.w3.org/1999/xlink">
<g id="graph0" class="graph" transform="scale(1 1) rotate(0) translate(4 739)">
<title>G</title>
<polygon fill="white" stroke="none" points="-4,4 -4,-739 361,-739 361,4 -4,4"/>
<!-- Entry -->
<g id="node1" class="node"><title>Entry</title>
<polygon fill="none" stroke="black" points="275.5,-735 221.5,-735 221.5,-699 275.5,-699 275.5,-735"/>
<text text-anchor="middle" x="248.5" y="-714.5" font-family="Courier,monospace" font-size="10.00">Entry</text>
</g>
<!-- B1 -->
<g id="node2" class="node"><title>B1</title>
<polygon fill="none" stroke="black" points="290,-663 207,-663 207,-622 290,-622 290,-663"/>
<text text-anchor="middle" x="248.5" y="-651" font-family="Courier,monospace" font-size="10.00">Блок B1</text>
<text text-anchor="start" x="215" y="-640" font-family="Courier,monospace" font-size="10.00">B:</text>
<text text-anchor="start" x="215" y="-629" font-family="Courier,monospace" font-size="10.00">(1) &#160;goto S</text>
</g>
<!-- Entry&#45;&gt;B1 -->
<g id="edge1" class="edge"><title>Entry&#45;&gt;B1</title>
<path fill="none" stroke="black" d="M248.5,-698.819C248.5,-691.198 248.5,-682.005 248.5,-673.32"/>
<polygon fill="black" stroke="black" points="252,-673.12 248.5,-663.12 245,-673.12 252,-673.12"/>
</g>
<!-- B3 -->
<g id="node3" class="node"><title>B3</title>
<polygon fill="none" stroke="black" points="308,-586 189,-586 189,-523 308,-523 308,-586"/>
<text text-anchor="middle" x="248.5" y="-574" font-family="Courier,monospace" font-size="10.00">Блок B3</text>
<text text-anchor="start" x="197" y="-563" font-family="Courier,monospace" font-size="10.00">S:</text>
<text text-anchor="start" x="197" y="-552" font-family="Courier,monospace" font-size="10.00">(3) t1 &lt;&#45; &#45;, n, k</text>
<text text-anchor="start" x="197" y="-541" font-family="Courier,monospace" font-size="10.00">(4) t &lt;&#45; +, 1, t1</text>
<text text-anchor="start" x="197" y="-530" font-family="Courier,monospace" font-size="10.00">(5) i &lt;&#45; &#45;, k, 1</text>
</g>
<!-- B1&#45;&gt;B3 -->
<g id="edge2" class="edge"><title>B1&#45;&gt;B3</title>
<path fill="none" stroke="black" d="M248.5,-621.985C248.5,-614.28 248.5,-605.123 248.5,-596.107"/>
<polygon fill="black" stroke="black" points="252,-596.072 248.5,-586.072 245,-596.072 252,-596.072"/>
</g>
<!-- B4 -->
<g id="node4" class="node"><title>B4</title>
<polygon fill="none" stroke="black" points="335,-487 162,-487 162,-446 335,-446 335,-487"/>
<text text-anchor="middle" x="248.5" y="-475" font-family="Courier,monospace" font-size="10.00">Блок B4</text>
<text text-anchor="start" x="170" y="-464" font-family="Courier,monospace" font-size="10.00">F:</text>
<text text-anchor="start" x="170" y="-453" font-family="Courier,monospace" font-size="10.00">(6) ifFalse i &gt;= 0 goto AF</text>
</g>
<!-- B3&#45;&gt;B4 -->
<g id="edge3" class="edge"><title>B3&#45;&gt;B4</title>
<path fill="none" stroke="black" d="M248.5,-522.937C248.5,-514.587 248.5,-505.551 248.5,-497.247"/>
<polygon fill="black" stroke="black" points="252,-497.225 248.5,-487.225 245,-497.225 252,-497.225"/>
</g>
<!-- B5 -->
<g id="node5" class="node"><title>B5</title>
<polygon fill="none" stroke="black" points="220,-410 41,-410 41,-347 220,-347 220,-410"/>
<text text-anchor="middle" x="130.5" y="-398" font-family="Courier,monospace" font-size="10.00">Блок B5</text>
<text text-anchor="start" x="49" y="-387" font-family="Courier,monospace" font-size="10.00">I:</text>
<text text-anchor="start" x="49" y="-376" font-family="Courier,monospace" font-size="10.00">(7) t2 &lt;&#45; a[i]</text>
<text text-anchor="start" x="49" y="-365" font-family="Courier,monospace" font-size="10.00">(8) t3 &lt;&#45; +, t, i</text>
<text text-anchor="start" x="49" y="-354" font-family="Courier,monospace" font-size="10.00">(9) ifFalse t2 &lt; t3 goto AI</text>
</g>
<!-- B4&#45;&gt;B5 -->
<g id="edge4" class="edge"><title>B4&#45;&gt;B5</title>
<path fill="none" stroke="black" d="M221.724,-445.985C209.56,-437.12 194.759,-426.333 180.65,-416.05"/>
<polygon fill="black" stroke="black" points="182.591,-413.133 172.448,-410.072 178.468,-418.79 182.591,-413.133"/>
</g>
<!-- B11 -->
<g id="node11" class="node"><title>B11</title>
<polygon fill="none" stroke="black" points="357,-223 262,-223 262,-182 357,-182 357,-223"/>
<text text-anchor="middle" x="309.5" y="-211" font-family="Courier,monospace" font-size="10.00">Блок B11</text>
<text text-anchor="start" x="270" y="-200" font-family="Courier,monospace" font-size="10.00">AF:</text>
<text text-anchor="start" x="270" y="-189" font-family="Courier,monospace" font-size="10.00">(24) return 0</text>
</g>
<!-- B4&#45;&gt;B11 -->
<g id="edge13" class="edge"><title>B4&#45;&gt;B11</title>
<path fill="none" stroke="black" d="M254.972,-445.696C264.325,-416.489 281.685,-360.022 292.5,-311 298.272,-284.836 302.866,-254.676 305.815,-232.973"/>
<polygon fill="black" stroke="black" points="309.286,-233.426 307.129,-223.053 302.346,-232.506 309.286,-233.426"/>
</g>
<!-- B6 -->
<g id="node6" class="node"><title>B6</title>
<polygon fill="none" stroke="black" points="146,-311 15,-311 15,-259 146,-259 146,-311"/>
<text text-anchor="middle" x="80.5" y="-299" font-family="Courier,monospace" font-size="10.00">Блок B6</text>
<text text-anchor="start" x="23" y="-288" font-family="Courier,monospace" font-size="10.00">(10) t4 &lt;&#45; +, t2, 1</text>
<text text-anchor="start" x="23" y="-277" font-family="Courier,monospace" font-size="10.00">(11) a[i] &lt;&#45; t4</text>
<text text-anchor="start" x="23" y="-266" font-family="Courier,monospace" font-size="10.00">(12) j &lt;&#45; +, i, 1</text>
</g>
<!-- B5&#45;&gt;B6 -->
<g id="edge5" class="edge"><title>B5&#45;&gt;B6</title>
<path fill="none" stroke="black" d="M113.712,-346.777C108.995,-338.146 103.84,-328.712 99.0282,-319.907"/>
<polygon fill="black" stroke="black" points="102.038,-318.115 94.171,-311.018 95.8949,-321.472 102.038,-318.115"/>
</g>
<!-- B10 -->
<g id="node10" class="node"><title>B10</title>
<polygon fill="none" stroke="black" points="283,-311 164,-311 164,-259 283,-259 283,-311"/>
<text text-anchor="middle" x="223.5" y="-299" font-family="Courier,monospace" font-size="10.00">Блок B10</text>
<text text-anchor="start" x="172" y="-288" font-family="Courier,monospace" font-size="10.00">AI:</text>
<text text-anchor="start" x="172" y="-277" font-family="Courier,monospace" font-size="10.00">(20) i &lt;&#45; &#45;, i, 1</text>
<text text-anchor="start" x="172" y="-266" font-family="Courier,monospace" font-size="10.00">(23) goto F</text>
</g>
<!-- B5&#45;&gt;B10 -->
<g id="edge11" class="edge"><title>B5&#45;&gt;B10</title>
<path fill="none" stroke="black" d="M161.726,-346.777C171.053,-337.601 181.302,-327.517 190.725,-318.246"/>
<polygon fill="black" stroke="black" points="193.398,-320.526 198.072,-311.018 188.489,-315.536 193.398,-320.526"/>
</g>
<!-- B7 -->
<g id="node7" class="node"><title>B7</title>
<polygon fill="none" stroke="black" points="179,-223 0,-223 0,-182 179,-182 179,-223"/>
<text text-anchor="middle" x="89.5" y="-211" font-family="Courier,monospace" font-size="10.00">Блок B7</text>
<text text-anchor="start" x="8" y="-200" font-family="Courier,monospace" font-size="10.00">F2:</text>
<text text-anchor="start" x="8" y="-189" font-family="Courier,monospace" font-size="10.00">(13) ifFalse j &lt; k goto AF2</text>
</g>
<!-- B6&#45;&gt;B7 -->
<g id="edge6" class="edge"><title>B6&#45;&gt;B7</title>
<path fill="none" stroke="black" d="M83.2983,-258.971C84.2054,-250.858 85.2206,-241.777 86.1628,-233.349"/>
<polygon fill="black" stroke="black" points="89.6707,-233.473 87.3036,-223.146 82.7141,-232.695 89.6707,-233.473"/>
</g>
<!-- B8 -->
<g id="node8" class="node"><title>B8</title>
<polygon fill="none" stroke="black" points="161,-146 18,-146 18,-72 161,-72 161,-146"/>
<text text-anchor="middle" x="89.5" y="-134" font-family="Courier,monospace" font-size="10.00">Блок B8</text>
<text text-anchor="start" x="26" y="-123" font-family="Courier,monospace" font-size="10.00">(14) t9 &lt;&#45; &#45;, j, 1</text>
<text text-anchor="start" x="26" y="-112" font-family="Courier,monospace" font-size="10.00">(15) t8 &lt;&#45; a[t9]</text>
<text text-anchor="start" x="26" y="-101" font-family="Courier,monospace" font-size="10.00">(16) a[j] &lt;&#45; +, 1, t8</text>
<text text-anchor="start" x="26" y="-90" font-family="Courier,monospace" font-size="10.00">(17) j &lt;&#45; +, j, 1</text>
<text text-anchor="start" x="26" y="-79" font-family="Courier,monospace" font-size="10.00">(18) goto F2</text>
</g>
<!-- B7&#45;&gt;B8 -->
<g id="edge7" class="edge"><title>B7&#45;&gt;B8</title>
<path fill="none" stroke="black" d="M83.8216,-181.646C83.1171,-174.085 82.7599,-165.116 82.7502,-156.128"/>
<polygon fill="black" stroke="black" points="86.2509,-156.093 82.8868,-146.046 79.2516,-155.998 86.2509,-156.093"/>
</g>
<!-- B9 -->
<g id="node9" class="node"><title>B9</title>
<polygon fill="none" stroke="black" points="276,-129.5 181,-129.5 181,-88.5 276,-88.5 276,-129.5"/>
<text text-anchor="middle" x="228.5" y="-117.5" font-family="Courier,monospace" font-size="10.00">Блок B9</text>
<text text-anchor="start" x="189" y="-106.5" font-family="Courier,monospace" font-size="10.00">AF2:</text>
<text text-anchor="start" x="189" y="-95.5" font-family="Courier,monospace" font-size="10.00">(19) return 1</text>
</g>
<!-- B7&#45;&gt;B9 -->
<g id="edge9" class="edge"><title>B7&#45;&gt;B9</title>
<path fill="none" stroke="black" d="M119.319,-181.871C140.023,-168.242 167.793,-149.962 190.145,-135.248"/>
<polygon fill="black" stroke="black" points="192.302,-138.018 198.73,-129.597 188.453,-132.172 192.302,-138.018"/>
</g>
<!-- B8&#45;&gt;B7 -->
<g id="edge8" class="edge"><title>B8&#45;&gt;B7</title>
<path fill="none" stroke="black" d="M96.1132,-146.046C96.3541,-154.474 96.2768,-163.361 95.8815,-171.493"/>
<polygon fill="black" stroke="black" points="92.3777,-171.428 95.1784,-181.646 99.361,-171.912 92.3777,-171.428"/>
</g>
<!-- Exit -->
<g id="node12" class="node"><title>Exit</title>
<polygon fill="none" stroke="black" points="293.5,-36 239.5,-36 239.5,-0 293.5,-0 293.5,-36"/>
<text text-anchor="middle" x="266.5" y="-15.5" font-family="Courier,monospace" font-size="10.00">Exit</text>
</g>
<!-- B9&#45;&gt;Exit -->
<g id="edge10" class="edge"><title>B9&#45;&gt;Exit</title>
<path fill="none" stroke="black" d="M236.933,-88.248C242.282,-75.7205 249.269,-59.3561 255.108,-45.681"/>
<polygon fill="black" stroke="black" points="258.409,-46.8632 259.117,-36.292 251.971,-44.1145 258.409,-46.8632"/>
</g>
<!-- B10&#45;&gt;B4 -->
<g id="edge12" class="edge"><title>B10&#45;&gt;B4</title>
<path fill="none" stroke="black" d="M227.02,-311.272C231.586,-344.059 239.539,-401.163 244.381,-435.928"/>
<polygon fill="black" stroke="black" points="240.931,-436.527 245.777,-445.949 247.864,-435.561 240.931,-436.527"/>
</g>
<!-- B11&#45;&gt;Exit -->
<g id="edge14" class="edge"><title>B11&#45;&gt;Exit</title>
<path fill="none" stroke="black" d="M306.883,-181.974C303.232,-156.432 295.872,-110.41 285.5,-72 283.181,-63.4125 280.11,-54.2332 277.115,-45.9679"/>
<polygon fill="black" stroke="black" points="280.333,-44.5825 273.554,-36.4407 273.776,-47.0332 280.333,-44.5825"/>
</g>
</g>
</svg>
