<?xml version="1.0" encoding="UTF-8" standalone="no"?>
<!DOCTYPE svg PUBLIC "-//W3C//DTD SVG 1.1//EN"
 "http://www.w3.org/Graphics/SVG/1.1/DTD/svg11.dtd">
<!-- Generated by graphviz version 2.38.0 (20140413.2041)
 -->
<!-- Title: G Pages: 1 -->
<svg width="242pt" height="556pt"
 viewBox="0.00 0.00 242.00 556.00" xmlns="http://www.w3.org/2000/svg" xmlns:xlink="http://www.w3.org/1999/xlink">
<g id="graph0" class="graph" transform="scale(1 1) rotate(0) translate(4 552)">
<title>G</title>
<polygon fill="white" stroke="none" points="-4,4 -4,-552 238,-552 238,4 -4,4"/>
<!-- Entry -->
<g id="node1" class="node"><title>Entry</title>
<polygon fill="none" stroke="black" points="108,-511.5 108,-547.5 162,-547.5 162,-511.5 108,-511.5"/>
<text text-anchor="middle" x="135" y="-525.8" font-family="Times,serif" font-size="14.00">Entry</text>
</g>
<!-- B1 -->
<g id="node2" class="node"><title>B1</title>
<polygon fill="none" stroke="black" points="108,-438.5 108,-474.5 162,-474.5 162,-438.5 108,-438.5"/>
<text text-anchor="middle" x="135" y="-452.8" font-family="Times,serif" font-size="14.00">B1</text>
</g>
<!-- Entry&#45;&gt;B1 -->
<g id="edge1" class="edge"><title>Entry&#45;&gt;B1</title>
<path fill="none" stroke="black" d="M135,-511.313C135,-503.289 135,-493.547 135,-484.569"/>
<polygon fill="black" stroke="black" points="138.5,-484.529 135,-474.529 131.5,-484.529 138.5,-484.529"/>
</g>
<!-- B3 -->
<g id="node3" class="node"><title>B3</title>
<polygon fill="none" stroke="black" points="108,-365.5 108,-401.5 162,-401.5 162,-365.5 108,-365.5"/>
<text text-anchor="middle" x="135" y="-379.8" font-family="Times,serif" font-size="14.00">B3</text>
</g>
<!-- B1&#45;&gt;B3 -->
<g id="edge2" class="edge"><title>B1&#45;&gt;B3</title>
<path fill="none" stroke="black" d="M135,-438.313C135,-430.289 135,-420.547 135,-411.569"/>
<polygon fill="black" stroke="black" points="138.5,-411.529 135,-401.529 131.5,-411.529 138.5,-411.529"/>
</g>
<!-- B4 -->
<g id="node4" class="node"><title>B4</title>
<polygon fill="none" stroke="black" points="108,-292.5 108,-328.5 162,-328.5 162,-292.5 108,-292.5"/>
<text text-anchor="middle" x="135" y="-306.8" font-family="Times,serif" font-size="14.00">B4</text>
</g>
<!-- B3&#45;&gt;B4 -->
<g id="edge3" class="edge"><title>B3&#45;&gt;B4</title>
<path fill="none" stroke="black" d="M135,-365.313C135,-357.289 135,-347.547 135,-338.569"/>
<polygon fill="black" stroke="black" points="138.5,-338.529 135,-328.529 131.5,-338.529 138.5,-338.529"/>
</g>
<!-- B5 -->
<g id="node5" class="node"><title>B5</title>
<polygon fill="none" stroke="black" points="36,-219.5 36,-255.5 90,-255.5 90,-219.5 36,-219.5"/>
<text text-anchor="middle" x="63" y="-233.8" font-family="Times,serif" font-size="14.00">B5</text>
</g>
<!-- B4&#45;&gt;B5 -->
<g id="edge4" class="edge"><title>B4&#45;&gt;B5</title>
<path fill="none" stroke="black" d="M117.571,-292.313C108.55,-283.417 97.387,-272.409 87.5121,-262.672"/>
<polygon fill="black" stroke="black" points="89.8466,-260.058 80.2687,-255.529 84.9315,-265.042 89.8466,-260.058"/>
</g>
<!-- B11 -->
<g id="node11" class="node"><title>B11</title>
<polygon fill="none" stroke="black" points="108,-219.5 108,-255.5 162,-255.5 162,-219.5 108,-219.5"/>
<text text-anchor="middle" x="135" y="-233.8" font-family="Times,serif" font-size="14.00">B11</text>
</g>
<!-- B4&#45;&gt;B11 -->
<g id="edge10" class="edge"><title>B4&#45;&gt;B11</title>
<path fill="none" stroke="black" d="M135,-292.313C135,-284.289 135,-274.547 135,-265.569"/>
<polygon fill="black" stroke="black" points="138.5,-265.529 135,-255.529 131.5,-265.529 138.5,-265.529"/>
</g>
<!-- Exit -->
<g id="node12" class="node"><title>Exit</title>
<polygon fill="none" stroke="black" points="180,-219.5 180,-255.5 234,-255.5 234,-219.5 180,-219.5"/>
<text text-anchor="middle" x="207" y="-233.8" font-family="Times,serif" font-size="14.00">Exit</text>
</g>
<!-- B4&#45;&gt;Exit -->
<g id="edge11" class="edge"><title>B4&#45;&gt;Exit</title>
<path fill="none" stroke="black" d="M152.429,-292.313C161.45,-283.417 172.613,-272.409 182.488,-262.672"/>
<polygon fill="black" stroke="black" points="185.068,-265.042 189.731,-255.529 180.153,-260.058 185.068,-265.042"/>
</g>
<!-- B10 -->
<g id="node6" class="node"><title>B10</title>
<polygon fill="none" stroke="black" points="0,-146.5 0,-182.5 54,-182.5 54,-146.5 0,-146.5"/>
<text text-anchor="middle" x="27" y="-160.8" font-family="Times,serif" font-size="14.00">B10</text>
</g>
<!-- B5&#45;&gt;B10 -->
<g id="edge5" class="edge"><title>B5&#45;&gt;B10</title>
<path fill="none" stroke="black" d="M54.2854,-219.313C50.0846,-211.028 44.9545,-200.91 40.2811,-191.693"/>
<polygon fill="black" stroke="black" points="43.2784,-189.865 35.6343,-182.529 37.0351,-193.031 43.2784,-189.865"/>
</g>
<!-- B6 -->
<g id="node7" class="node"><title>B6</title>
<polygon fill="none" stroke="black" points="72,-146.5 72,-182.5 126,-182.5 126,-146.5 72,-146.5"/>
<text text-anchor="middle" x="99" y="-160.8" font-family="Times,serif" font-size="14.00">B6</text>
</g>
<!-- B5&#45;&gt;B6 -->
<g id="edge6" class="edge"><title>B5&#45;&gt;B6</title>
<path fill="none" stroke="black" d="M71.7146,-219.313C75.9154,-211.028 81.0455,-200.91 85.7189,-191.693"/>
<polygon fill="black" stroke="black" points="88.9649,-193.031 90.3657,-182.529 82.7216,-189.865 88.9649,-193.031"/>
</g>
<!-- B7 -->
<g id="node8" class="node"><title>B7</title>
<polygon fill="none" stroke="black" points="72,-73.5 72,-109.5 126,-109.5 126,-73.5 72,-73.5"/>
<text text-anchor="middle" x="99" y="-87.8" font-family="Times,serif" font-size="14.00">B7</text>
</g>
<!-- B6&#45;&gt;B7 -->
<g id="edge7" class="edge"><title>B6&#45;&gt;B7</title>
<path fill="none" stroke="black" d="M99,-146.313C99,-138.289 99,-128.547 99,-119.569"/>
<polygon fill="black" stroke="black" points="102.5,-119.529 99,-109.529 95.5001,-119.529 102.5,-119.529"/>
</g>
<!-- B8 -->
<g id="node9" class="node"><title>B8</title>
<polygon fill="none" stroke="black" points="36,-0.5 36,-36.5 90,-36.5 90,-0.5 36,-0.5"/>
<text text-anchor="middle" x="63" y="-14.8" font-family="Times,serif" font-size="14.00">B8</text>
</g>
<!-- B7&#45;&gt;B8 -->
<g id="edge8" class="edge"><title>B7&#45;&gt;B8</title>
<path fill="none" stroke="black" d="M90.2854,-73.3129C86.0846,-65.0279 80.9545,-54.9103 76.2811,-45.6933"/>
<polygon fill="black" stroke="black" points="79.2784,-43.865 71.6343,-36.5288 73.0351,-47.0307 79.2784,-43.865"/>
</g>
<!-- B9 -->
<g id="node10" class="node"><title>B9</title>
<polygon fill="none" stroke="black" points="108,-0.5 108,-36.5 162,-36.5 162,-0.5 108,-0.5"/>
<text text-anchor="middle" x="135" y="-14.8" font-family="Times,serif" font-size="14.00">B9</text>
</g>
<!-- B7&#45;&gt;B9 -->
<g id="edge9" class="edge"><title>B7&#45;&gt;B9</title>
<path fill="none" stroke="black" d="M107.715,-73.3129C111.915,-65.0279 117.045,-54.9103 121.719,-45.6933"/>
<polygon fill="black" stroke="black" points="124.965,-47.0307 126.366,-36.5288 118.722,-43.865 124.965,-47.0307"/>
</g>
</g>
</svg>
