<?xml version="1.0" encoding="UTF-8" standalone="no"?>
<!DOCTYPE svg PUBLIC "-//W3C//DTD SVG 1.1//EN"
 "http://www.w3.org/Graphics/SVG/1.1/DTD/svg11.dtd">
<!-- Generated by graphviz version 2.38.0 (20140413.2041)
 -->
<!-- Title: G Pages: 1 -->
<svg width="377pt" height="776pt"
 viewBox="0.00 0.00 377.00 776.00" xmlns="http://www.w3.org/2000/svg" xmlns:xlink="http://www.w3.org/1999/xlink">
<g id="graph0" class="graph" transform="scale(1 1) rotate(0) translate(4 772)">
<title>G</title>
<polygon fill="white" stroke="none" points="-4,4 -4,-772 373,-772 373,4 -4,4"/>
<!-- Entry -->
<g id="node1" class="node"><title>Entry</title>
<polygon fill="none" stroke="black" points="296,-768 219,-768 219,-732 296,-732 296,-768"/>
<text text-anchor="middle" x="257.5" y="-753" font-family="Courier,monospace" font-size="10.00">Entry</text>
<text text-anchor="start" x="227" y="-742" font-family="Courier,monospace" font-size="10.00">() a0 &lt;&#45; a</text>
</g>
<!-- B1 -->
<g id="node2" class="node"><title>B1</title>
<polygon fill="none" stroke="black" points="299,-696 216,-696 216,-655 299,-655 299,-696"/>
<text text-anchor="middle" x="257.5" y="-684" font-family="Courier,monospace" font-size="10.00">Блок B1</text>
<text text-anchor="start" x="224" y="-673" font-family="Courier,monospace" font-size="10.00">B:</text>
<text text-anchor="start" x="224" y="-662" font-family="Courier,monospace" font-size="10.00">(1) &#160;goto S</text>
</g>
<!-- Entry&#45;&gt;B1 -->
<g id="edge1" class="edge"><title>Entry&#45;&gt;B1</title>
<path fill="none" stroke="black" d="M257.5,-731.819C257.5,-724.198 257.5,-715.005 257.5,-706.32"/>
<polygon fill="black" stroke="black" points="261,-706.12 257.5,-696.12 254,-706.12 261,-706.12"/>
</g>
<!-- B3 -->
<g id="node3" class="node"><title>B3</title>
<polygon fill="none" stroke="black" points="317,-619 198,-619 198,-556 317,-556 317,-619"/>
<text text-anchor="middle" x="257.5" y="-607" font-family="Courier,monospace" font-size="10.00">Блок B3</text>
<text text-anchor="start" x="206" y="-596" font-family="Courier,monospace" font-size="10.00">S:</text>
<text text-anchor="start" x="206" y="-585" font-family="Courier,monospace" font-size="10.00">(3) t1 &lt;&#45; &#45;, n, k</text>
<text text-anchor="start" x="206" y="-574" font-family="Courier,monospace" font-size="10.00">(4) t &lt;&#45; +, 1, t1</text>
<text text-anchor="start" x="206" y="-563" font-family="Courier,monospace" font-size="10.00">(5) i0 &lt;&#45; &#45;, k, 1</text>
</g>
<!-- B1&#45;&gt;B3 -->
<g id="edge2" class="edge"><title>B1&#45;&gt;B3</title>
<path fill="none" stroke="black" d="M257.5,-654.985C257.5,-647.28 257.5,-638.123 257.5,-629.107"/>
<polygon fill="black" stroke="black" points="261,-629.072 257.5,-619.072 254,-629.072 261,-629.072"/>
</g>
<!-- B4 -->
<g id="node4" class="node"><title>B4</title>
<polygon fill="none" stroke="black" points="347,-520 168,-520 168,-468 347,-468 347,-520"/>
<text text-anchor="middle" x="257.5" y="-508" font-family="Courier,monospace" font-size="10.00">Блок B4</text>
<text text-anchor="start" x="176" y="-497" font-family="Courier,monospace" font-size="10.00">F:</text>
<text text-anchor="start" x="176" y="-486" font-family="Courier,monospace" font-size="10.00">() &#160;i1 &lt;&#45; φ(i0, i2)</text>
<text text-anchor="start" x="176" y="-475" font-family="Courier,monospace" font-size="10.00">(6) ifFalse i1 &gt;= 0 goto AF</text>
</g>
<!-- B3&#45;&gt;B4 -->
<g id="edge3" class="edge"><title>B3&#45;&gt;B4</title>
<path fill="none" stroke="black" d="M257.5,-555.777C257.5,-547.509 257.5,-538.505 257.5,-530.022"/>
<polygon fill="black" stroke="black" points="261,-530.018 257.5,-520.018 254,-530.018 261,-530.018"/>
</g>
<!-- B5 -->
<g id="node5" class="node"><title>B5</title>
<polygon fill="none" stroke="black" points="229,-432 50,-432 50,-369 229,-369 229,-432"/>
<text text-anchor="middle" x="139.5" y="-420" font-family="Courier,monospace" font-size="10.00">Блок B5</text>
<text text-anchor="start" x="58" y="-409" font-family="Courier,monospace" font-size="10.00">I:</text>
<text text-anchor="start" x="58" y="-398" font-family="Courier,monospace" font-size="10.00">(7) t2 &lt;&#45; a0[i1]</text>
<text text-anchor="start" x="58" y="-387" font-family="Courier,monospace" font-size="10.00">(8) t3 &lt;&#45; +, t, i1</text>
<text text-anchor="start" x="58" y="-376" font-family="Courier,monospace" font-size="10.00">(9) ifFalse t2 &lt; t3 goto AI</text>
</g>
<!-- B4&#45;&gt;B5 -->
<g id="edge4" class="edge"><title>B4&#45;&gt;B5</title>
<path fill="none" stroke="black" d="M225.256,-467.997C213.389,-458.795 199.69,-448.173 186.772,-438.156"/>
<polygon fill="black" stroke="black" points="188.901,-435.378 178.854,-432.016 184.612,-440.91 188.901,-435.378"/>
</g>
<!-- B11 -->
<g id="node11" class="node"><title>B11</title>
<polygon fill="none" stroke="black" points="369,-234 274,-234 274,-193 369,-193 369,-234"/>
<text text-anchor="middle" x="321.5" y="-222" font-family="Courier,monospace" font-size="10.00">Блок B11</text>
<text text-anchor="start" x="282" y="-211" font-family="Courier,monospace" font-size="10.00">AF:</text>
<text text-anchor="start" x="282" y="-200" font-family="Courier,monospace" font-size="10.00">(24) return 0</text>
</g>
<!-- B4&#45;&gt;B11 -->
<g id="edge13" class="edge"><title>B4&#45;&gt;B11</title>
<path fill="none" stroke="black" d="M266.125,-467.796C276.544,-436.514 293.981,-381.377 304.5,-333 311.001,-303.102 315.647,-268.403 318.421,-244.312"/>
<polygon fill="black" stroke="black" points="321.901,-244.69 319.53,-234.364 314.944,-243.915 321.901,-244.69"/>
</g>
<!-- B6 -->
<g id="node6" class="node"><title>B6</title>
<polygon fill="none" stroke="black" points="146,-333 15,-333 15,-281 146,-281 146,-333"/>
<text text-anchor="middle" x="80.5" y="-321" font-family="Courier,monospace" font-size="10.00">Блок B6</text>
<text text-anchor="start" x="23" y="-310" font-family="Courier,monospace" font-size="10.00">(10) t4 &lt;&#45; +, t2, 1</text>
<text text-anchor="start" x="23" y="-299" font-family="Courier,monospace" font-size="10.00">(11) a1[i1] &lt;&#45; t4</text>
<text text-anchor="start" x="23" y="-288" font-family="Courier,monospace" font-size="10.00">(12) j0 &lt;&#45; +, i1, 1</text>
</g>
<!-- B5&#45;&gt;B6 -->
<g id="edge5" class="edge"><title>B5&#45;&gt;B6</title>
<path fill="none" stroke="black" d="M119.69,-368.777C114.066,-360.055 107.913,-350.513 102.184,-341.629"/>
<polygon fill="black" stroke="black" points="104.992,-339.526 96.6318,-333.018 99.1095,-343.319 104.992,-339.526"/>
</g>
<!-- B10 -->
<g id="node10" class="node"><title>B10</title>
<polygon fill="none" stroke="black" points="295,-333 164,-333 164,-281 295,-281 295,-333"/>
<text text-anchor="middle" x="229.5" y="-321" font-family="Courier,monospace" font-size="10.00">Блок B10</text>
<text text-anchor="start" x="172" y="-310" font-family="Courier,monospace" font-size="10.00">AI:</text>
<text text-anchor="start" x="172" y="-299" font-family="Courier,monospace" font-size="10.00">(20) i2 &lt;&#45; &#45;, i1, 1</text>
<text text-anchor="start" x="172" y="-288" font-family="Courier,monospace" font-size="10.00">(23) goto F</text>
</g>
<!-- B5&#45;&gt;B10 -->
<g id="edge11" class="edge"><title>B5&#45;&gt;B10</title>
<path fill="none" stroke="black" d="M169.719,-368.777C178.745,-359.601 188.663,-349.517 197.783,-340.246"/>
<polygon fill="black" stroke="black" points="200.375,-342.602 204.892,-333.018 195.385,-337.693 200.375,-342.602"/>
</g>
<!-- B7 -->
<g id="node7" class="node"><title>B7</title>
<polygon fill="none" stroke="black" points="185,-245 0,-245 0,-182 185,-182 185,-245"/>
<text text-anchor="middle" x="92.5" y="-233" font-family="Courier,monospace" font-size="10.00">Блок B7</text>
<text text-anchor="start" x="8" y="-222" font-family="Courier,monospace" font-size="10.00">F2:</text>
<text text-anchor="start" x="8" y="-211" font-family="Courier,monospace" font-size="10.00">() &#160;&#160;j1 &lt;&#45; φ(j0, j2)</text>
<text text-anchor="start" x="8" y="-200" font-family="Courier,monospace" font-size="10.00">() &#160;&#160;a2 &lt;&#45; φ(a1, a3)</text>
<text text-anchor="start" x="8" y="-189" font-family="Courier,monospace" font-size="10.00">(13) ifFalse j1 &lt; k goto AF2</text>
</g>
<!-- B6&#45;&gt;B7 -->
<g id="edge6" class="edge"><title>B6&#45;&gt;B7</title>
<path fill="none" stroke="black" d="M83.7791,-280.997C84.8265,-273.011 86.0142,-263.954 87.1686,-255.152"/>
<polygon fill="black" stroke="black" points="90.6678,-255.386 88.4979,-245.016 83.7272,-254.476 90.6678,-255.386"/>
</g>
<!-- B8 -->
<g id="node8" class="node"><title>B8</title>
<polygon fill="none" stroke="black" points="170,-146 15,-146 15,-72 170,-72 170,-146"/>
<text text-anchor="middle" x="92.5" y="-134" font-family="Courier,monospace" font-size="10.00">Блок B8</text>
<text text-anchor="start" x="23" y="-123" font-family="Courier,monospace" font-size="10.00">(14) t9 &lt;&#45; &#45;, j1, 1</text>
<text text-anchor="start" x="23" y="-112" font-family="Courier,monospace" font-size="10.00">(15) t8 &lt;&#45; a2[t9]</text>
<text text-anchor="start" x="23" y="-101" font-family="Courier,monospace" font-size="10.00">(16) a3[j1] &lt;&#45; +, 1, t8</text>
<text text-anchor="start" x="23" y="-90" font-family="Courier,monospace" font-size="10.00">(17) j2 &lt;&#45; +, j1, 1</text>
<text text-anchor="start" x="23" y="-79" font-family="Courier,monospace" font-size="10.00">(18) goto F2</text>
</g>
<!-- B7&#45;&gt;B8 -->
<g id="edge7" class="edge"><title>B7&#45;&gt;B8</title>
<path fill="none" stroke="black" d="M86.2547,-181.747C85.8367,-173.694 85.6784,-164.832 85.7796,-156.167"/>
<polygon fill="black" stroke="black" points="89.2791,-156.225 86.0176,-146.144 82.2811,-156.058 89.2791,-156.225"/>
</g>
<!-- B9 -->
<g id="node9" class="node"><title>B9</title>
<polygon fill="none" stroke="black" points="286,-129.5 191,-129.5 191,-88.5 286,-88.5 286,-129.5"/>
<text text-anchor="middle" x="238.5" y="-117.5" font-family="Courier,monospace" font-size="10.00">Блок B9</text>
<text text-anchor="start" x="199" y="-106.5" font-family="Courier,monospace" font-size="10.00">AF2:</text>
<text text-anchor="start" x="199" y="-95.5" font-family="Courier,monospace" font-size="10.00">(19) return 1</text>
</g>
<!-- B7&#45;&gt;B9 -->
<g id="edge9" class="edge"><title>B7&#45;&gt;B9</title>
<path fill="none" stroke="black" d="M136.305,-181.747C157.324,-166.99 182.211,-149.518 202.162,-135.511"/>
<polygon fill="black" stroke="black" points="204.212,-138.349 210.385,-129.738 200.189,-132.62 204.212,-138.349"/>
</g>
<!-- B8&#45;&gt;B7 -->
<g id="edge8" class="edge"><title>B8&#45;&gt;B7</title>
<path fill="none" stroke="black" d="M98.9824,-146.144C99.2834,-154.412 99.3305,-163.256 99.1236,-171.704"/>
<polygon fill="black" stroke="black" points="95.6243,-171.622 98.7453,-181.747 102.619,-171.885 95.6243,-171.622"/>
</g>
<!-- Exit -->
<g id="node12" class="node"><title>Exit</title>
<polygon fill="none" stroke="black" points="303.5,-36 249.5,-36 249.5,-0 303.5,-0 303.5,-36"/>
<text text-anchor="middle" x="276.5" y="-15.5" font-family="Courier,monospace" font-size="10.00">Exit</text>
</g>
<!-- B9&#45;&gt;Exit -->
<g id="edge10" class="edge"><title>B9&#45;&gt;Exit</title>
<path fill="none" stroke="black" d="M246.933,-88.248C252.282,-75.7205 259.269,-59.3561 265.108,-45.681"/>
<polygon fill="black" stroke="black" points="268.409,-46.8632 269.117,-36.292 261.971,-44.1145 268.409,-46.8632"/>
</g>
<!-- B10&#45;&gt;B4 -->
<g id="edge12" class="edge"><title>B10&#45;&gt;B4</title>
<path fill="none" stroke="black" d="M233.288,-333.03C238.146,-365.124 246.599,-420.979 252.122,-457.467"/>
<polygon fill="black" stroke="black" points="248.708,-458.301 253.665,-467.664 255.629,-457.253 248.708,-458.301"/>
</g>
<!-- B11&#45;&gt;Exit -->
<g id="edge14" class="edge"><title>B11&#45;&gt;Exit</title>
<path fill="none" stroke="black" d="M318.869,-192.729C314.99,-165.328 306.94,-114.391 295.5,-72 293.182,-63.4122 290.112,-54.2328 287.116,-45.9676"/>
<polygon fill="black" stroke="black" points="290.335,-44.582 283.555,-36.4403 283.778,-47.0328 290.335,-44.582"/>
</g>
</g>
</svg>
