<?xml version="1.0" encoding="UTF-8" standalone="no"?>
<!DOCTYPE svg PUBLIC "-//W3C//DTD SVG 1.1//EN"
 "http://www.w3.org/Graphics/SVG/1.1/DTD/svg11.dtd">
<!-- Generated by graphviz version 2.38.0 (20140413.2041)
 -->
<!-- Title: G Pages: 1 -->
<svg width="365pt" height="776pt"
 viewBox="0.00 0.00 365.00 776.00" xmlns="http://www.w3.org/2000/svg" xmlns:xlink="http://www.w3.org/1999/xlink">
<g id="graph0" class="graph" transform="scale(1 1) rotate(0) translate(4 772)">
<title>G</title>
<polygon fill="white" stroke="none" points="-4,4 -4,-772 361,-772 361,4 -4,4"/>
<!-- Entry -->
<g id="node1" class="node"><title>Entry</title>
<polygon fill="none" stroke="black" points="275.5,-768 221.5,-768 221.5,-732 275.5,-732 275.5,-768"/>
<text text-anchor="middle" x="248.5" y="-747.5" font-family="Courier,monospace" font-size="10.00">Entry</text>
</g>
<!-- B1 -->
<g id="node2" class="node"><title>B1</title>
<polygon fill="none" stroke="black" points="290,-696 207,-696 207,-655 290,-655 290,-696"/>
<text text-anchor="middle" x="248.5" y="-684" font-family="Courier,monospace" font-size="10.00">Блок B1</text>
<text text-anchor="start" x="215" y="-673" font-family="Courier,monospace" font-size="10.00">B:</text>
<text text-anchor="start" x="215" y="-662" font-family="Courier,monospace" font-size="10.00">(1) &#160;goto S</text>
</g>
<!-- Entry&#45;&gt;B1 -->
<g id="edge1" class="edge"><title>Entry&#45;&gt;B1</title>
<path fill="none" stroke="black" d="M248.5,-731.819C248.5,-724.198 248.5,-715.005 248.5,-706.32"/>
<polygon fill="black" stroke="black" points="252,-706.12 248.5,-696.12 245,-706.12 252,-706.12"/>
</g>
<!-- B3 -->
<g id="node3" class="node"><title>B3</title>
<polygon fill="none" stroke="black" points="308,-619 189,-619 189,-556 308,-556 308,-619"/>
<text text-anchor="middle" x="248.5" y="-607" font-family="Courier,monospace" font-size="10.00">Блок B3</text>
<text text-anchor="start" x="197" y="-596" font-family="Courier,monospace" font-size="10.00">S:</text>
<text text-anchor="start" x="197" y="-585" font-family="Courier,monospace" font-size="10.00">(3) t1 &lt;&#45; &#45;, n, k</text>
<text text-anchor="start" x="197" y="-574" font-family="Courier,monospace" font-size="10.00">(4) t &lt;&#45; +, 1, t1</text>
<text text-anchor="start" x="197" y="-563" font-family="Courier,monospace" font-size="10.00">(5) i &lt;&#45; &#45;, k, 1</text>
</g>
<!-- B1&#45;&gt;B3 -->
<g id="edge2" class="edge"><title>B1&#45;&gt;B3</title>
<path fill="none" stroke="black" d="M248.5,-654.985C248.5,-647.28 248.5,-638.123 248.5,-629.107"/>
<polygon fill="black" stroke="black" points="252,-629.072 248.5,-619.072 245,-629.072 252,-629.072"/>
</g>
<!-- B4 -->
<g id="node4" class="node"><title>B4</title>
<polygon fill="none" stroke="black" points="335,-520 162,-520 162,-468 335,-468 335,-520"/>
<text text-anchor="middle" x="248.5" y="-508" font-family="Courier,monospace" font-size="10.00">Блок B4</text>
<text text-anchor="start" x="170" y="-497" font-family="Courier,monospace" font-size="10.00">F:</text>
<text text-anchor="start" x="170" y="-486" font-family="Courier,monospace" font-size="10.00">() &#160;i &lt;&#45; φ(i, i)</text>
<text text-anchor="start" x="170" y="-475" font-family="Courier,monospace" font-size="10.00">(6) ifFalse i &gt;= 0 goto AF</text>
</g>
<!-- B3&#45;&gt;B4 -->
<g id="edge3" class="edge"><title>B3&#45;&gt;B4</title>
<path fill="none" stroke="black" d="M248.5,-555.777C248.5,-547.509 248.5,-538.505 248.5,-530.022"/>
<polygon fill="black" stroke="black" points="252,-530.018 248.5,-520.018 245,-530.018 252,-530.018"/>
</g>
<!-- B5 -->
<g id="node5" class="node"><title>B5</title>
<polygon fill="none" stroke="black" points="220,-432 41,-432 41,-369 220,-369 220,-432"/>
<text text-anchor="middle" x="130.5" y="-420" font-family="Courier,monospace" font-size="10.00">Блок B5</text>
<text text-anchor="start" x="49" y="-409" font-family="Courier,monospace" font-size="10.00">I:</text>
<text text-anchor="start" x="49" y="-398" font-family="Courier,monospace" font-size="10.00">(7) t2 &lt;&#45; a[i]</text>
<text text-anchor="start" x="49" y="-387" font-family="Courier,monospace" font-size="10.00">(8) t3 &lt;&#45; +, t, i</text>
<text text-anchor="start" x="49" y="-376" font-family="Courier,monospace" font-size="10.00">(9) ifFalse t2 &lt; t3 goto AI</text>
</g>
<!-- B4&#45;&gt;B5 -->
<g id="edge4" class="edge"><title>B4&#45;&gt;B5</title>
<path fill="none" stroke="black" d="M216.256,-467.997C204.389,-458.795 190.69,-448.173 177.772,-438.156"/>
<polygon fill="black" stroke="black" points="179.901,-435.378 169.854,-432.016 175.612,-440.91 179.901,-435.378"/>
</g>
<!-- B11 -->
<g id="node11" class="node"><title>B11</title>
<polygon fill="none" stroke="black" points="357,-234 262,-234 262,-193 357,-193 357,-234"/>
<text text-anchor="middle" x="309.5" y="-222" font-family="Courier,monospace" font-size="10.00">Блок B11</text>
<text text-anchor="start" x="270" y="-211" font-family="Courier,monospace" font-size="10.00">AF:</text>
<text text-anchor="start" x="270" y="-200" font-family="Courier,monospace" font-size="10.00">(24) return 0</text>
</g>
<!-- B4&#45;&gt;B11 -->
<g id="edge13" class="edge"><title>B4&#45;&gt;B11</title>
<path fill="none" stroke="black" d="M256.508,-467.747C266.195,-436.415 282.451,-381.228 292.5,-333 298.741,-303.047 303.426,-268.356 306.281,-244.282"/>
<polygon fill="black" stroke="black" points="309.758,-244.677 307.427,-234.342 302.804,-243.875 309.758,-244.677"/>
</g>
<!-- B6 -->
<g id="node6" class="node"><title>B6</title>
<polygon fill="none" stroke="black" points="146,-333 15,-333 15,-281 146,-281 146,-333"/>
<text text-anchor="middle" x="80.5" y="-321" font-family="Courier,monospace" font-size="10.00">Блок B6</text>
<text text-anchor="start" x="23" y="-310" font-family="Courier,monospace" font-size="10.00">(10) t4 &lt;&#45; +, t2, 1</text>
<text text-anchor="start" x="23" y="-299" font-family="Courier,monospace" font-size="10.00">(11) a[i] &lt;&#45; t4</text>
<text text-anchor="start" x="23" y="-288" font-family="Courier,monospace" font-size="10.00">(12) j &lt;&#45; +, i, 1</text>
</g>
<!-- B5&#45;&gt;B6 -->
<g id="edge5" class="edge"><title>B5&#45;&gt;B6</title>
<path fill="none" stroke="black" d="M113.712,-368.777C108.995,-360.146 103.84,-350.712 99.0282,-341.907"/>
<polygon fill="black" stroke="black" points="102.038,-340.115 94.171,-333.018 95.8949,-343.472 102.038,-340.115"/>
</g>
<!-- B10 -->
<g id="node10" class="node"><title>B10</title>
<polygon fill="none" stroke="black" points="283,-333 164,-333 164,-281 283,-281 283,-333"/>
<text text-anchor="middle" x="223.5" y="-321" font-family="Courier,monospace" font-size="10.00">Блок B10</text>
<text text-anchor="start" x="172" y="-310" font-family="Courier,monospace" font-size="10.00">AI:</text>
<text text-anchor="start" x="172" y="-299" font-family="Courier,monospace" font-size="10.00">(20) i &lt;&#45; &#45;, i, 1</text>
<text text-anchor="start" x="172" y="-288" font-family="Courier,monospace" font-size="10.00">(23) goto F</text>
</g>
<!-- B5&#45;&gt;B10 -->
<g id="edge11" class="edge"><title>B5&#45;&gt;B10</title>
<path fill="none" stroke="black" d="M161.726,-368.777C171.053,-359.601 181.302,-349.517 190.725,-340.246"/>
<polygon fill="black" stroke="black" points="193.398,-342.526 198.072,-333.018 188.489,-337.536 193.398,-342.526"/>
</g>
<!-- B7 -->
<g id="node7" class="node"><title>B7</title>
<polygon fill="none" stroke="black" points="179,-245 0,-245 0,-182 179,-182 179,-245"/>
<text text-anchor="middle" x="89.5" y="-233" font-family="Courier,monospace" font-size="10.00">Блок B7</text>
<text text-anchor="start" x="8" y="-222" font-family="Courier,monospace" font-size="10.00">F2:</text>
<text text-anchor="start" x="8" y="-211" font-family="Courier,monospace" font-size="10.00">() &#160;&#160;j &lt;&#45; φ(j, j)</text>
<text text-anchor="start" x="8" y="-200" font-family="Courier,monospace" font-size="10.00">() &#160;&#160;a &lt;&#45; φ(a, a)</text>
<text text-anchor="start" x="8" y="-189" font-family="Courier,monospace" font-size="10.00">(13) ifFalse j &lt; k goto AF2</text>
</g>
<!-- B6&#45;&gt;B7 -->
<g id="edge6" class="edge"><title>B6&#45;&gt;B7</title>
<path fill="none" stroke="black" d="M82.9593,-280.997C83.7449,-273.011 84.6357,-263.954 85.5014,-255.152"/>
<polygon fill="black" stroke="black" points="89.0027,-255.31 86.4984,-245.016 82.0363,-254.625 89.0027,-255.31"/>
</g>
<!-- B8 -->
<g id="node8" class="node"><title>B8</title>
<polygon fill="none" stroke="black" points="161,-146 18,-146 18,-72 161,-72 161,-146"/>
<text text-anchor="middle" x="89.5" y="-134" font-family="Courier,monospace" font-size="10.00">Блок B8</text>
<text text-anchor="start" x="26" y="-123" font-family="Courier,monospace" font-size="10.00">(14) t9 &lt;&#45; &#45;, j, 1</text>
<text text-anchor="start" x="26" y="-112" font-family="Courier,monospace" font-size="10.00">(15) t8 &lt;&#45; a[t9]</text>
<text text-anchor="start" x="26" y="-101" font-family="Courier,monospace" font-size="10.00">(16) a[j] &lt;&#45; +, 1, t8</text>
<text text-anchor="start" x="26" y="-90" font-family="Courier,monospace" font-size="10.00">(17) j &lt;&#45; +, j, 1</text>
<text text-anchor="start" x="26" y="-79" font-family="Courier,monospace" font-size="10.00">(18) goto F2</text>
</g>
<!-- B7&#45;&gt;B8 -->
<g id="edge7" class="edge"><title>B7&#45;&gt;B8</title>
<path fill="none" stroke="black" d="M83.2547,-181.747C82.8367,-173.694 82.6784,-164.832 82.7796,-156.167"/>
<polygon fill="black" stroke="black" points="86.2791,-156.225 83.0176,-146.144 79.2811,-156.058 86.2791,-156.225"/>
</g>
<!-- B9 -->
<g id="node9" class="node"><title>B9</title>
<polygon fill="none" stroke="black" points="276,-129.5 181,-129.5 181,-88.5 276,-88.5 276,-129.5"/>
<text text-anchor="middle" x="228.5" y="-117.5" font-family="Courier,monospace" font-size="10.00">Блок B9</text>
<text text-anchor="start" x="189" y="-106.5" font-family="Courier,monospace" font-size="10.00">AF2:</text>
<text text-anchor="start" x="189" y="-95.5" font-family="Courier,monospace" font-size="10.00">(19) return 1</text>
</g>
<!-- B7&#45;&gt;B9 -->
<g id="edge9" class="edge"><title>B7&#45;&gt;B9</title>
<path fill="none" stroke="black" d="M131.205,-181.747C151.127,-167.056 174.698,-149.674 193.65,-135.699"/>
<polygon fill="black" stroke="black" points="195.762,-138.49 201.733,-129.738 191.607,-132.856 195.762,-138.49"/>
</g>
<!-- B8&#45;&gt;B7 -->
<g id="edge8" class="edge"><title>B8&#45;&gt;B7</title>
<path fill="none" stroke="black" d="M95.9824,-146.144C96.2834,-154.412 96.3305,-163.256 96.1236,-171.704"/>
<polygon fill="black" stroke="black" points="92.6243,-171.622 95.7453,-181.747 99.6193,-171.885 92.6243,-171.622"/>
</g>
<!-- Exit -->
<g id="node12" class="node"><title>Exit</title>
<polygon fill="none" stroke="black" points="293.5,-36 239.5,-36 239.5,-0 293.5,-0 293.5,-36"/>
<text text-anchor="middle" x="266.5" y="-15.5" font-family="Courier,monospace" font-size="10.00">Exit</text>
</g>
<!-- B9&#45;&gt;Exit -->
<g id="edge10" class="edge"><title>B9&#45;&gt;Exit</title>
<path fill="none" stroke="black" d="M236.933,-88.248C242.282,-75.7205 249.269,-59.3561 255.108,-45.681"/>
<polygon fill="black" stroke="black" points="258.409,-46.8632 259.117,-36.292 251.971,-44.1145 258.409,-46.8632"/>
</g>
<!-- B10&#45;&gt;B4 -->
<g id="edge12" class="edge"><title>B10&#45;&gt;B4</title>
<path fill="none" stroke="black" d="M226.882,-333.03C231.219,-365.124 238.767,-420.979 243.698,-457.467"/>
<polygon fill="black" stroke="black" points="240.269,-458.223 245.076,-467.664 247.205,-457.286 240.269,-458.223"/>
</g>
<!-- B11&#45;&gt;Exit -->
<g id="edge14" class="edge"><title>B11&#45;&gt;Exit</title>
<path fill="none" stroke="black" d="M307.231,-192.722C303.836,-165.312 296.62,-114.365 285.5,-72 283.242,-63.3964 280.188,-54.2125 277.19,-45.9479"/>
<polygon fill="black" stroke="black" points="280.407,-44.5576 273.618,-36.4237 273.852,-47.0159 280.407,-44.5576"/>
</g>
</g>
</svg>
