<?xml version="1.0" encoding="UTF-8" standalone="no"?>
<!DOCTYPE svg PUBLIC "-//W3C//DTD SVG 1.1//EN"
 "http://www.w3.org/Graphics/SVG/1.1/DTD/svg11.dtd">
<!-- Generated by graphviz version 2.38.0 (20140413.2041)
 -->
<!-- Title: G Pages: 1 -->
<svg width="368pt" height="337pt"
 viewBox="0.00 0.00 368.00 337.00" xmlns="http://www.w3.org/2000/svg" xmlns:xlink="http://www.w3.org/1999/xlink">
<g id="graph0" class="graph" transform="scale(1 1) rotate(0) translate(4 333)">
<title>G</title>
<polygon fill="white" stroke="none" points="-4,4 -4,-333 364,-333 364,4 -4,4"/>
<!-- Exit -->
<g id="node1" class="node"><title>Exit</title>
<polygon fill="none" stroke="black" points="198,-292.5 198,-328.5 252,-328.5 252,-292.5 198,-292.5"/>
<text text-anchor="middle" x="225" y="-306.8" font-family="Times,serif" font-size="14.00">Exit</text>
</g>
<!-- B4 -->
<g id="node2" class="node"><title>B4</title>
<polygon fill="none" stroke="black" points="90,-219.5 90,-255.5 144,-255.5 144,-219.5 90,-219.5"/>
<text text-anchor="middle" x="117" y="-233.8" font-family="Times,serif" font-size="14.00">B4</text>
</g>
<!-- Exit&#45;&gt;B4 -->
<g id="edge1" class="edge"><title>Exit&#45;&gt;B4</title>
<path fill="none" stroke="black" d="M199.131,-292.494C184.942,-283.166 167.158,-271.474 151.77,-261.358"/>
<polygon fill="black" stroke="black" points="153.311,-258.182 143.032,-255.614 149.465,-264.032 153.311,-258.182"/>
</g>
<!-- B5 -->
<g id="node3" class="node"><title>B5</title>
<polygon fill="none" stroke="black" points="162,-219.5 162,-255.5 216,-255.5 216,-219.5 162,-219.5"/>
<text text-anchor="middle" x="189" y="-233.8" font-family="Times,serif" font-size="14.00">B5</text>
</g>
<!-- Exit&#45;&gt;B5 -->
<g id="edge2" class="edge"><title>Exit&#45;&gt;B5</title>
<path fill="none" stroke="black" d="M216.285,-292.313C212.085,-284.028 206.955,-273.91 202.281,-264.693"/>
<polygon fill="black" stroke="black" points="205.278,-262.865 197.634,-255.529 199.035,-266.031 205.278,-262.865"/>
</g>
<!-- B9 -->
<g id="node4" class="node"><title>B9</title>
<polygon fill="none" stroke="black" points="234,-219.5 234,-255.5 288,-255.5 288,-219.5 234,-219.5"/>
<text text-anchor="middle" x="261" y="-233.8" font-family="Times,serif" font-size="14.00">B9</text>
</g>
<!-- Exit&#45;&gt;B9 -->
<g id="edge3" class="edge"><title>Exit&#45;&gt;B9</title>
<path fill="none" stroke="black" d="M233.715,-292.313C237.915,-284.028 243.045,-273.91 247.719,-264.693"/>
<polygon fill="black" stroke="black" points="250.965,-266.031 252.366,-255.529 244.722,-262.865 250.965,-266.031"/>
</g>
<!-- B11 -->
<g id="node5" class="node"><title>B11</title>
<polygon fill="none" stroke="black" points="306,-219.5 306,-255.5 360,-255.5 360,-219.5 306,-219.5"/>
<text text-anchor="middle" x="333" y="-233.8" font-family="Times,serif" font-size="14.00">B11</text>
</g>
<!-- Exit&#45;&gt;B11 -->
<g id="edge4" class="edge"><title>Exit&#45;&gt;B11</title>
<path fill="none" stroke="black" d="M250.869,-292.494C265.058,-283.166 282.842,-271.474 298.23,-261.358"/>
<polygon fill="black" stroke="black" points="300.535,-264.032 306.968,-255.614 296.689,-258.182 300.535,-264.032"/>
</g>
<!-- B3 -->
<g id="node6" class="node"><title>B3</title>
<polygon fill="none" stroke="black" points="54,-146.5 54,-182.5 108,-182.5 108,-146.5 54,-146.5"/>
<text text-anchor="middle" x="81" y="-160.8" font-family="Times,serif" font-size="14.00">B3</text>
</g>
<!-- B4&#45;&gt;B3 -->
<g id="edge5" class="edge"><title>B4&#45;&gt;B3</title>
<path fill="none" stroke="black" d="M108.285,-219.313C104.085,-211.028 98.9545,-200.91 94.2811,-191.693"/>
<polygon fill="black" stroke="black" points="97.2784,-189.865 89.6343,-182.529 91.0351,-193.031 97.2784,-189.865"/>
</g>
<!-- B10 -->
<g id="node7" class="node"><title>B10</title>
<polygon fill="none" stroke="black" points="126,-146.5 126,-182.5 180,-182.5 180,-146.5 126,-146.5"/>
<text text-anchor="middle" x="153" y="-160.8" font-family="Times,serif" font-size="14.00">B10</text>
</g>
<!-- B4&#45;&gt;B10 -->
<g id="edge6" class="edge"><title>B4&#45;&gt;B10</title>
<path fill="none" stroke="black" d="M125.715,-219.313C129.915,-211.028 135.045,-200.91 139.719,-191.693"/>
<polygon fill="black" stroke="black" points="142.965,-193.031 144.366,-182.529 136.722,-189.865 142.965,-193.031"/>
</g>
<!-- B7 -->
<g id="node12" class="node"><title>B7</title>
<polygon fill="none" stroke="black" points="234,-146.5 234,-182.5 288,-182.5 288,-146.5 234,-146.5"/>
<text text-anchor="middle" x="261" y="-160.8" font-family="Times,serif" font-size="14.00">B7</text>
</g>
<!-- B9&#45;&gt;B7 -->
<g id="edge11" class="edge"><title>B9&#45;&gt;B7</title>
<path fill="none" stroke="black" d="M261,-219.313C261,-211.289 261,-201.547 261,-192.569"/>
<polygon fill="black" stroke="black" points="264.5,-192.529 261,-182.529 257.5,-192.529 264.5,-192.529"/>
</g>
<!-- B1 -->
<g id="node8" class="node"><title>B1</title>
<polygon fill="none" stroke="black" points="36,-73.5 36,-109.5 90,-109.5 90,-73.5 36,-73.5"/>
<text text-anchor="middle" x="63" y="-87.8" font-family="Times,serif" font-size="14.00">B1</text>
</g>
<!-- B3&#45;&gt;B1 -->
<g id="edge7" class="edge"><title>B3&#45;&gt;B1</title>
<path fill="none" stroke="black" d="M76.6427,-146.313C74.5865,-138.202 72.0851,-128.336 69.7884,-119.277"/>
<polygon fill="black" stroke="black" points="73.1674,-118.362 67.3172,-109.529 66.382,-120.082 73.1674,-118.362"/>
</g>
<!-- B2 -->
<g id="node9" class="node"><title>B2</title>
<polygon fill="none" stroke="black" points="108,-73.5 108,-109.5 162,-109.5 162,-73.5 108,-73.5"/>
<text text-anchor="middle" x="135" y="-87.8" font-family="Times,serif" font-size="14.00">B2</text>
</g>
<!-- B3&#45;&gt;B2 -->
<g id="edge8" class="edge"><title>B3&#45;&gt;B2</title>
<path fill="none" stroke="black" d="M94.0719,-146.313C100.638,-137.679 108.719,-127.055 115.96,-117.534"/>
<polygon fill="black" stroke="black" points="118.781,-119.607 122.048,-109.529 113.209,-115.37 118.781,-119.607"/>
</g>
<!-- B12 -->
<g id="node10" class="node"><title>B12</title>
<polygon fill="none" stroke="black" points="0,-0.5 0,-36.5 54,-36.5 54,-0.5 0,-0.5"/>
<text text-anchor="middle" x="27" y="-14.8" font-family="Times,serif" font-size="14.00">B12</text>
</g>
<!-- B1&#45;&gt;B12 -->
<g id="edge9" class="edge"><title>B1&#45;&gt;B12</title>
<path fill="none" stroke="black" d="M54.2854,-73.3129C50.0846,-65.0279 44.9545,-54.9103 40.2811,-45.6933"/>
<polygon fill="black" stroke="black" points="43.2784,-43.865 35.6343,-36.5288 37.0351,-47.0307 43.2784,-43.865"/>
</g>
<!-- Entry -->
<g id="node11" class="node"><title>Entry</title>
<polygon fill="none" stroke="black" points="72,-0.5 72,-36.5 126,-36.5 126,-0.5 72,-0.5"/>
<text text-anchor="middle" x="99" y="-14.8" font-family="Times,serif" font-size="14.00">Entry</text>
</g>
<!-- B1&#45;&gt;Entry -->
<g id="edge10" class="edge"><title>B1&#45;&gt;Entry</title>
<path fill="none" stroke="black" d="M71.7146,-73.3129C75.9154,-65.0279 81.0455,-54.9103 85.7189,-45.6933"/>
<polygon fill="black" stroke="black" points="88.9649,-47.0307 90.3657,-36.5288 82.7216,-43.865 88.9649,-47.0307"/>
</g>
<!-- B6 -->
<g id="node13" class="node"><title>B6</title>
<polygon fill="none" stroke="black" points="207,-73.5 207,-109.5 261,-109.5 261,-73.5 207,-73.5"/>
<text text-anchor="middle" x="234" y="-87.8" font-family="Times,serif" font-size="14.00">B6</text>
</g>
<!-- B7&#45;&gt;B6 -->
<g id="edge12" class="edge"><title>B7&#45;&gt;B6</title>
<path fill="none" stroke="black" d="M254.464,-146.313C251.347,-138.115 247.547,-128.123 244.072,-118.985"/>
<polygon fill="black" stroke="black" points="247.302,-117.632 240.476,-109.529 240.759,-120.12 247.302,-117.632"/>
</g>
<!-- B8 -->
<g id="node14" class="node"><title>B8</title>
<polygon fill="none" stroke="black" points="279,-73.5 279,-109.5 333,-109.5 333,-73.5 279,-73.5"/>
<text text-anchor="middle" x="306" y="-87.8" font-family="Times,serif" font-size="14.00">B8</text>
</g>
<!-- B7&#45;&gt;B8 -->
<g id="edge13" class="edge"><title>B7&#45;&gt;B8</title>
<path fill="none" stroke="black" d="M271.893,-146.313C277.255,-137.853 283.827,-127.484 289.767,-118.112"/>
<polygon fill="black" stroke="black" points="292.81,-119.849 295.207,-109.529 286.897,-116.102 292.81,-119.849"/>
</g>
</g>
</svg>
